<svg xmlns="http://www.w3.org/2000/svg" viewBox="296 148 438 743">
  <path d="M 626.0,158.0 C 630.8,158.0 647.7,154.8 654.0,159.0 C 660.3,163.2 677.5,142.3 664.0,183.0 C 650.5,223.7 586.2,366.0 573.0,403.0 C 559.8,440.0 569.7,406.5 585.0,405.0 C 600.3,403.5 647.7,395.7 665.0,394.0 C 682.3,392.3 682.3,396.0 689.0,395.0 C 695.7,394.0 699.2,387.7 705.0,388.0 C 710.8,388.3 722.0,394.2 724.0,397.0 C 726.0,399.8 717.5,401.8 717.0,405.0 C 716.5,408.2 724.0,407.5 721.0,416.0 C 718.0,424.5 713.3,434.7 699.0,456.0 C 684.7,477.3 653.0,517.3 635.0,544.0 C 617.0,570.7 610.3,588.7 591.0,616.0 C 571.7,643.3 534.2,685.3 519.0,708.0 C 503.8,730.7 506.5,739.3 500.0,752.0 C 493.5,764.7 488.8,772.0 480.0,784.0 C 471.2,796.0 457.7,808.7 447.0,824.0 C 436.3,839.3 421.7,866.8 416.0,876.0 C 410.3,885.2 414.8,879.0 413.0,879.0 C 411.2,879.0 407.7,875.7 405.0,876.0 C 402.3,876.3 398.3,886.8 397.0,881.0 C 395.7,875.2 385.5,895.0 397.0,841.0 C 408.5,787.0 459.8,604.3 466.0,557.0 C 472.2,509.7 456.7,554.5 434.0,557.0 C 411.3,559.5 350.7,569.8 330.0,572.0 C 309.3,574.2 314.0,570.8 310.0,570.0 C 306.0,569.2 305.0,569.2 306.0,567.0 C 307.0,564.8 315.5,560.7 316.0,557.0 C 316.5,553.3 309.0,551.7 309.0,545.0 C 309.0,538.3 312.7,529.0 316.0,517.0 C 319.3,505.0 325.8,481.5 329.0,473.0 C 332.2,464.5 333.5,470.5 335.0,466.0 C 336.5,461.5 334.3,456.0 338.0,446.0 C 341.7,436.0 354.0,414.0 357.0,406.0 C 360.0,398.0 351.8,416.7 356.0,398.0 C 360.2,379.3 371.8,329.3 382.0,294.0 C 392.2,258.7 407.2,206.5 417.0,186.0 C 426.8,165.5 435.0,172.8 441.0,171.0 C 447.0,169.2 441.7,175.8 453.0,175.0 C 464.3,174.2 480.3,168.7 509.0,166.0 C 537.7,163.3 605.5,160.3 625.0,159.0 C 644.5,157.7 621.2,158.0 626.0,158.0 Z" fill="#111"/>
  <path d="M 608.0,200.0 C 610.5,199.8 617.7,198.8 620.0,200.0 C 622.3,201.2 628.2,191.8 622.0,207.0 C 615.8,222.2 592.3,272.3 583.0,291.0 C 573.7,309.7 574.8,301.0 566.0,319.0 C 557.2,337.0 536.7,382.3 530.0,399.0 C 523.3,415.7 528.0,413.8 526.0,419.0 C 524.0,424.2 518.0,427.0 518.0,430.0 C 518.0,433.0 522.7,435.8 526.0,437.0 C 529.3,438.2 534.0,435.3 538.0,437.0 C 542.0,438.7 529.3,448.0 550.0,447.0 C 570.7,446.0 643.2,432.5 662.0,431.0 C 680.8,429.5 673.8,420.2 663.0,438.0 C 652.2,455.8 617.7,504.7 597.0,538.0 C 576.3,571.3 561.0,604.0 539.0,638.0 C 517.0,672.0 477.8,724.5 465.0,742.0 C 452.2,759.5 462.3,744.2 462.0,743.0 C 461.7,741.8 456.5,756.3 463.0,735.0 C 469.5,713.7 492.2,647.0 501.0,615.0 C 509.8,583.0 514.7,555.8 516.0,543.0 C 517.3,530.2 510.8,540.8 509.0,538.0 C 507.2,535.2 508.3,529.3 505.0,526.0 C 501.7,522.7 512.3,515.8 489.0,518.0 C 465.7,520.2 386.8,536.0 365.0,539.0 C 343.2,542.0 358.8,537.8 358.0,536.0 C 357.2,534.2 347.0,569.3 360.0,528.0 C 373.0,486.7 420.3,339.3 436.0,288.0 C 451.7,236.7 450.5,232.0 454.0,220.0 C 457.5,208.0 452.5,216.7 457.0,216.0 C 461.5,215.3 468.3,217.7 481.0,216.0 C 493.7,214.3 512.3,208.5 533.0,206.0 C 553.7,203.5 592.5,202.0 605.0,201.0 C 617.5,200.0 605.5,200.2 608.0,200.0 Z" fill="#d4fc02"/>
</svg>